<svg width="1253" height="1253" viewBox="0 0 1253 1253" fill="none" xmlns="http://www.w3.org/2000/svg">
<rect width="1253" height="1253" fill="#111111"/>
<g transform="translate(188,188) scale(0.7)">
<path d="M626.231 366.97C483.062 366.97 366.994 483.034 366.994 626.203C366.994 769.376 483.059 885.437 626.228 885.44C705.092 885.44 775.728 850.216 823.272 794.651L1071.4 1066.66C1058.88 1079.32 1045.82 1091.44 1032.26 1103L797.843 846.016L974.276 1146.91C957.663 1158.04 940.49 1168.39 922.806 1177.91L762.449 904.435L863.713 1205.86C842.202 1214.68 820.091 1222.34 797.46 1228.76L712.076 974.595L742.751 1241.63C717.843 1246.32 692.419 1249.53 666.569 1251.18L639.663 1016.93L618.456 1252.41C590.233 1252.06 562.462 1249.86 535.258 1245.9L553.651 1041.64L491.823 1238C462.176 1231.51 433.314 1222.93 405.4 1212.41L457.483 1046.99L371.072 1198.29C341.424 1185.04 312.994 1169.56 285.997 1152.06L354.225 1032.6L262.657 1136.17C234.504 1116.06 208.085 1093.68 183.67 1069.29L257.646 985.622L166.871 1051.85C141.908 1024.92 119.281 995.79 99.3183 964.786L154.156 924.777L92.0588 953.237C33.6682 858.058 0.000291861 746.077 0 626.23C0.000291861 280.374 280.373 0 626.231 0V366.97ZM1150.76 968.451C1142.22 981.509 1133.21 994.229 1123.75 1006.59L824.854 792.786C834.859 780.869 843.811 768.039 851.568 754.441L1150.76 968.451ZM1208.45 857.287C1203.5 869.732 1198.17 881.982 1192.47 894.018L856.206 745.945C862.35 734.166 867.618 721.855 871.92 709.101L1208.45 857.287ZM1243.24 733.856C1241.34 744.865 1239.14 755.775 1236.66 766.58L876.263 694.887C879.178 684.246 881.435 673.333 882.981 662.193L1243.24 733.856ZM1252.28 611.418C1252.4 616.341 1252.46 621.28 1252.46 626.23C1252.46 629.645 1252.43 633.051 1252.38 636.451H885.264C885.395 633.051 885.462 629.636 885.462 626.203C885.462 621.242 885.319 616.312 885.042 611.418H1252.28ZM1237.49 489.534C1239.06 496.576 1240.51 503.666 1241.84 510.793L881.773 582.413C880.553 575.236 879.038 568.155 877.24 561.191L1237.49 489.534ZM1199.11 372.935C1202.04 379.54 1204.85 386.2 1207.55 392.925L868.359 533.421C865.759 526.641 862.884 519.998 859.743 513.504L1199.11 372.935ZM1138.64 266.14C1142.8 272.05 1146.86 278.039 1150.82 284.096L845.606 488.036C841.736 481.907 837.62 475.95 833.266 470.183L1138.64 266.14ZM1058.56 173.184C1063.79 178.178 1068.94 183.259 1074 188.43L814.461 447.964C809.485 442.713 804.293 437.667 798.899 432.845L1058.56 173.184ZM965.546 99.8083C971.625 103.735 977.635 107.764 983.565 111.893L779.581 417.178C773.758 412.903 767.755 408.86 761.579 405.072L965.546 99.8083ZM856.454 43.6764C863.187 46.3403 869.865 49.1164 876.485 52.0047L735.953 391.27C729.424 388.217 722.747 385.427 715.935 382.914L856.454 43.6764ZM738.469 10.0327C745.605 11.3239 752.697 12.7342 759.749 14.2653L688.117 374.403C681.133 372.693 674.035 371.269 666.844 370.136L738.469 10.0327Z" fill="white"/>
</g>
</svg>
